<svg width="359" height="237" viewBox="0 0 359 237" fill="none" xmlns="http://www.w3.org/2000/svg">
<g clip-path="url(#clip0_5_13)">
<path d="M-222.606 635.313C-124.92 717.587 34.023 717.587 131.709 635.313C229.394 553.038 229.394 419.165 131.709 336.89C57.414 274.313 57.414 172.498 131.709 109.921C206.003 47.344 326.894 47.344 401.188 109.921L402.018 109.222C327.266 46.26 205.631 46.26 130.879 109.222C56.127 172.184 56.127 274.632 130.879 337.594C228.107 419.483 228.107 552.729 130.879 634.619C33.651 716.508 -124.542 716.508 -221.77 634.619L-222.606 635.313Z" fill="url(#paint0_linear_5_13)"/>
<path d="M-212.206 626.555C-120.257 704.004 29.36 704.004 121.315 626.555C213.264 549.106 213.264 423.092 121.315 345.643C41.29 278.24 41.29 168.562 121.315 101.159C201.34 33.7561 331.557 33.7561 411.588 101.159L412.418 100.46C331.93 32.6673 200.973 32.6673 120.485 100.46C39.997 168.253 39.997 278.554 120.485 346.347C211.977 423.406 211.977 548.797 120.485 625.856C28.993 702.915 -119.879 702.915 -211.37 625.856L-212.206 626.555Z" fill="url(#paint1_linear_5_13)"/>
<path d="M-201.812 617.798C-115.593 690.416 24.696 690.416 110.915 617.798C197.134 545.179 197.134 427.019 110.915 354.401C25.154 282.167 25.154 164.634 110.915 92.4058C196.676 20.1774 336.221 20.1727 421.976 92.4058L422.806 91.7069C336.588 19.0886 196.298 19.0886 110.079 91.7069C23.861 164.325 23.861 282.486 110.079 355.104C195.841 427.337 195.841 544.87 110.079 617.099C24.318 689.327 -115.226 689.332 -200.982 617.099L-201.812 617.798Z" fill="url(#paint2_linear_5_13)"/>
<path d="M-191.418 609.04C-110.93 676.833 20.027 676.833 100.515 609.04C181.003 541.247 181.003 430.946 100.515 363.153C9.02302 286.094 9.02302 160.703 100.515 83.6436C192.007 6.58471 340.879 6.58471 432.371 83.6436L433.2 82.9447C341.251 5.49596 191.635 5.49596 99.68 82.9447C7.72499 160.394 7.73 286.408 99.68 363.857C179.71 431.26 179.71 540.938 99.68 608.341C19.649 675.744 -110.563 675.744 -190.594 608.341L-191.418 609.04Z" fill="url(#paint3_linear_5_13)"/>
<path d="M90.121 371.911C-7.10699 290.022 -7.10699 156.775 90.121 74.8861C187.349 -7.00319 345.542 -7.00319 442.77 74.8861L443.6 74.1873C345.915 -8.08717 186.971 -8.08717 89.285 74.1873C-8.39999 156.462 -8.39999 290.335 89.285 372.61C163.58 435.187 163.58 537.002 89.285 599.579C14.991 662.156 -105.899 662.156 -180.194 599.579L-181.024 600.278C-106.272 663.24 15.364 663.24 90.115 600.278C164.867 537.316 164.879 434.878 90.121 371.911Z" fill="url(#paint4_linear_5_13)"/>
<path d="M1.20901 223.403C1.20901 283.075 28.801 339.177 78.897 381.372C147.461 439.119 147.461 533.079 78.897 590.831C10.333 648.582 -101.224 648.577 -169.788 590.831L-170.618 591.53C-101.597 649.661 10.706 649.661 79.727 591.53C148.748 533.398 148.748 438.805 79.727 380.673C-23.232 293.953 -23.232 152.853 79.727 66.1381C182.686 -20.5769 350.211 -20.5816 453.17 66.1381L454 65.4344C403.904 23.2394 337.293 0 266.449 0C195.598 0 128.993 23.2394 78.897 65.4344C28.795 107.63 1.20901 163.731 1.20901 223.403Z" fill="url(#paint5_linear_5_13)"/>
<path d="M142.103 118.674C210.667 60.9273 322.224 60.9273 390.788 118.674L391.618 117.975C322.597 59.8433 210.294 59.8433 141.273 117.975C72.252 176.107 72.252 270.7 141.273 328.832C244.232 415.551 244.232 556.652 141.273 643.367C38.314 730.086 -129.211 730.086 -232.17 643.367L-233 644.066C-182.904 686.261 -116.299 709.5 -45.448 709.5C25.402 709.5 92.007 686.261 142.103 644.066C192.199 601.87 219.791 545.769 219.791 486.097C219.791 426.425 192.199 370.323 142.103 328.128C73.545 270.381 73.545 176.421 142.103 118.674Z" fill="url(#paint6_linear_5_13)"/>
</g>
<defs>
<linearGradient id="paint0_linear_5_13" x1="89.704" y1="697.016" x2="89.704" y2="61.9986" gradientUnits="userSpaceOnUse">
<stop stop-color="#D8E0F2" stop-opacity="0"/>
<stop offset="1" stop-color="#336AEA"/>
</linearGradient>
<linearGradient id="paint1_linear_5_13" x1="100.101" y1="684.638" x2="100.101" y2="49.6209" gradientUnits="userSpaceOnUse">
<stop stop-color="#D8E0F2" stop-opacity="0"/>
<stop offset="1" stop-color="#336AEA"/>
</linearGradient>
<linearGradient id="paint2_linear_5_13" x1="110.497" y1="672.26" x2="110.497" y2="37.2434" gradientUnits="userSpaceOnUse">
<stop stop-color="#D8E0F2" stop-opacity="0"/>
<stop offset="1" stop-color="#336AEA"/>
</linearGradient>
<linearGradient id="paint3_linear_5_13" x1="120.894" y1="659.883" x2="120.894" y2="24.8656" gradientUnits="userSpaceOnUse">
<stop stop-color="#D8E0F2" stop-opacity="0"/>
<stop offset="1" stop-color="#336AEA"/>
</linearGradient>
<linearGradient id="paint4_linear_5_13" x1="131.29" y1="647.505" x2="131.29" y2="12.4881" gradientUnits="userSpaceOnUse">
<stop stop-color="#D8E0F2" stop-opacity="0"/>
<stop offset="1" stop-color="#336AEA"/>
</linearGradient>
<linearGradient id="paint5_linear_5_13" x1="141.686" y1="635.127" x2="141.686" y2="0.00605699" gradientUnits="userSpaceOnUse">
<stop stop-color="#D8E0F2" stop-opacity="0"/>
<stop offset="1" stop-color="#336AEA"/>
</linearGradient>
<linearGradient id="paint6_linear_5_13" x1="79.308" y1="709.498" x2="79.308" y2="74.3764" gradientUnits="userSpaceOnUse">
<stop stop-color="#D8E0F2" stop-opacity="0"/>
<stop offset="1" stop-color="#336AEA"/>
</linearGradient>
<clipPath id="clip0_5_13">
<rect width="359" height="237" fill="white"/>
</clipPath>
</defs>
</svg>
