<svg width="592" height="237" viewBox="0 0 592 237" fill="none" xmlns="http://www.w3.org/2000/svg">
<g clip-path="url(#clip0_55_237)">
<path d="M10.394 635.313C108.08 717.587 267.023 717.587 364.709 635.313C462.394 553.038 462.394 419.165 364.709 336.89C290.414 274.313 290.414 172.498 364.709 109.921C439.003 47.344 559.894 47.344 634.188 109.921L635.018 109.222C560.266 46.26 438.631 46.26 363.879 109.222C289.127 172.184 289.127 274.632 363.879 337.594C461.107 419.483 461.107 552.729 363.879 634.619C266.651 716.508 108.458 716.508 11.2297 634.619L10.394 635.313Z" fill="url(#paint0_linear_55_237)"/>
<path d="M20.7939 626.555C112.743 704.004 262.36 704.004 354.315 626.555C446.264 549.107 446.264 423.092 354.315 345.643C274.29 278.24 274.29 168.562 354.315 101.159C434.34 33.7561 564.557 33.7561 644.588 101.159L645.418 100.46C564.93 32.6674 433.973 32.6674 353.485 100.46C272.997 168.253 272.997 278.554 353.485 346.347C444.977 423.406 444.977 548.798 353.485 625.856C261.993 702.915 113.121 702.915 21.6295 625.856L20.7939 626.555Z" fill="url(#paint1_linear_55_237)"/>
<path d="M31.188 617.798C117.407 690.416 257.696 690.416 343.915 617.798C430.134 545.179 430.134 427.019 343.915 354.401C258.154 282.167 258.154 164.635 343.915 92.4061C429.676 20.1776 569.221 20.1729 654.976 92.4061L655.806 91.7072C569.588 19.0889 429.298 19.0889 343.079 91.7072C256.861 164.325 256.861 282.486 343.079 355.104C428.841 427.338 428.841 544.87 343.079 617.099C257.318 689.327 117.774 689.332 32.018 617.099L31.188 617.798Z" fill="url(#paint2_linear_55_237)"/>
<path d="M41.5822 609.04C122.07 676.833 253.027 676.833 333.515 609.04C414.003 541.247 414.003 430.946 333.515 363.153C242.023 286.094 242.023 160.703 333.515 83.6437C425.007 6.58478 573.879 6.58478 665.371 83.6437L666.201 82.9448C574.251 5.49603 424.635 5.49603 332.68 82.9448C240.725 160.394 240.73 286.408 332.68 363.857C412.71 431.26 412.71 540.938 332.68 608.341C252.649 675.744 122.437 675.744 42.4065 608.341L41.5822 609.04Z" fill="url(#paint3_linear_55_237)"/>
<path d="M323.121 371.911C225.893 290.022 225.893 156.776 323.121 74.8862C420.349 -7.00317 578.542 -7.00317 675.77 74.8862L676.6 74.1873C578.915 -8.08716 419.971 -8.08716 322.285 74.1873C224.6 156.462 224.6 290.335 322.285 372.61C396.58 435.187 396.58 537.002 322.285 599.579C247.991 662.156 127.101 662.156 52.8062 599.579L51.9763 600.278C126.728 663.24 248.364 663.24 323.115 600.278C397.867 537.316 397.879 434.878 323.121 371.911Z" fill="url(#paint4_linear_55_237)"/>
<path d="M234.209 223.403C234.209 283.075 261.801 339.177 311.897 381.372C380.461 439.119 380.461 533.079 311.897 590.831C243.333 648.582 131.776 648.577 63.2117 590.831L62.3817 591.53C131.403 649.661 243.706 649.661 312.727 591.53C381.748 533.398 381.748 438.805 312.727 380.673C209.768 293.953 209.768 152.853 312.727 66.138C415.686 -20.577 583.211 -20.5817 686.17 66.138L687 65.4343C636.904 23.2393 570.293 -0.00012207 499.449 -0.00012207C428.598 -0.00012207 361.993 23.2393 311.897 65.4343C261.795 107.629 234.209 163.731 234.209 223.403Z" fill="url(#paint5_linear_55_237)"/>
<path d="M375.103 118.674C443.667 60.9273 555.224 60.9273 623.788 118.674L624.618 117.975C555.597 59.8433 443.294 59.8433 374.273 117.975C305.252 176.107 305.252 270.7 374.273 328.832C477.232 415.551 477.232 556.652 374.273 643.367C271.314 730.086 103.789 730.086 0.830017 643.367L0 644.066C50.0962 686.261 116.701 709.5 187.552 709.5C258.402 709.5 325.007 686.261 375.103 644.066C425.199 601.87 452.791 545.769 452.791 486.097C452.791 426.425 425.199 370.323 375.103 328.128C306.545 270.381 306.545 176.421 375.103 118.674Z" fill="url(#paint6_linear_55_237)"/>
</g>
<defs>
<linearGradient id="paint0_linear_55_237" x1="322.704" y1="697.016" x2="322.704" y2="61.9986" gradientUnits="userSpaceOnUse">
<stop stop-color="#D8E0F2" stop-opacity="0"/>
<stop offset="1" stop-color="#336AEA"/>
</linearGradient>
<linearGradient id="paint1_linear_55_237" x1="333.101" y1="684.638" x2="333.101" y2="49.621" gradientUnits="userSpaceOnUse">
<stop stop-color="#D8E0F2" stop-opacity="0"/>
<stop offset="1" stop-color="#336AEA"/>
</linearGradient>
<linearGradient id="paint2_linear_55_237" x1="343.497" y1="672.26" x2="343.497" y2="37.2436" gradientUnits="userSpaceOnUse">
<stop stop-color="#D8E0F2" stop-opacity="0"/>
<stop offset="1" stop-color="#336AEA"/>
</linearGradient>
<linearGradient id="paint3_linear_55_237" x1="353.894" y1="659.883" x2="353.894" y2="24.8657" gradientUnits="userSpaceOnUse">
<stop stop-color="#D8E0F2" stop-opacity="0"/>
<stop offset="1" stop-color="#336AEA"/>
</linearGradient>
<linearGradient id="paint4_linear_55_237" x1="364.29" y1="647.505" x2="364.29" y2="12.4881" gradientUnits="userSpaceOnUse">
<stop stop-color="#D8E0F2" stop-opacity="0"/>
<stop offset="1" stop-color="#336AEA"/>
</linearGradient>
<linearGradient id="paint5_linear_55_237" x1="374.686" y1="635.127" x2="374.686" y2="0.00597127" gradientUnits="userSpaceOnUse">
<stop stop-color="#D8E0F2" stop-opacity="0"/>
<stop offset="1" stop-color="#336AEA"/>
</linearGradient>
<linearGradient id="paint6_linear_55_237" x1="312.308" y1="709.498" x2="312.308" y2="74.3764" gradientUnits="userSpaceOnUse">
<stop stop-color="#D8E0F2" stop-opacity="0"/>
<stop offset="1" stop-color="#336AEA"/>
</linearGradient>
<clipPath id="clip0_55_237">
<rect width="687" height="709.5" fill="white" transform="matrix(-1 0 0 -1 687 709.5)"/>
</clipPath>
</defs>
</svg>
